<?xml version="1.0" standalone="no"?>
<!DOCTYPE svg PUBLIC "-//W3C//DTD SVG 20010904//EN"
 "http://www.w3.org/TR/2001/REC-SVG-20010904/DTD/svg10.dtd">
<svg version="1.0" xmlns="http://www.w3.org/2000/svg"
 width="512.000000pt" height="512.000000pt" viewBox="0 0 512.000000 512.000000"
 preserveAspectRatio="xMidYMid meet">
<metadata>
Created by potrace 1.11, written by Peter Selinger 2001-2013
</metadata>
<g transform="translate(0.000000,512.000000) scale(0.100000,-0.100000)"
fill="#000000" stroke="none">
<path d="M3120 4073 c-152 -21 -313 -71 -427 -133 -108 -58 -151 -112 -201
-253 -34 -97 -36 -250 -7 -632 12 -173 22 -312 31 -440 6 -92 6 -682 -1 -835
-5 -140 -5 -382 1 -430 12 -101 35 -149 72 -151 9 0 26 -2 37 -4 11 -2 94 -7
185 -10 91 -3 192 -8 225 -10 280 -20 742 -26 928 -13 268 21 514 65 620 112
122 53 259 169 363 306 69 91 99 146 128 231 34 103 37 125 41 284 6 217 -16
309 -98 417 -19 24 -57 92 -85 150 -41 84 -66 121 -128 187 -66 70 -90 89
-168 126 -50 24 -142 60 -203 80 -108 36 -112 38 -101 58 18 33 14 277 -6 360
-21 90 -76 203 -125 259 -131 149 -471 303 -741 337 -71 8 -286 11 -340 4z
m495 -162 c206 -42 428 -159 508 -268 42 -58 62 -118 81 -243 19 -134 14 -230
-18 -313 -34 -88 -33 -103 6 -123 26 -13 38 -14 69 -5 50 15 85 8 199 -41 110
-46 199 -97 255 -146 90 -79 175 -248 181 -359 3 -61 -7 -82 -20 -45 -12 30
-51 82 -62 82 -6 0 -23 -9 -38 -21 l-26 -20 31 -52 c73 -124 119 -230 114
-261 -12 -69 -17 -88 -25 -79 -5 4 -32 61 -59 126 -65 152 -107 246 -125 277
-17 29 -62 38 -89 17 -18 -12 -16 -18 35 -113 30 -54 88 -163 128 -240 63
-124 72 -146 66 -177 -4 -20 -15 -46 -25 -58 l-19 -23 -167 334 c-92 184 -174
343 -182 353 -19 20 -46 22 -62 4 -8 -11 30 -95 169 -370 99 -196 180 -367
180 -380 0 -17 -10 -28 -35 -40 -52 -25 -109 -32 -121 -15 -9 11 -156 349
-182 418 -6 14 -19 46 -30 70 -12 25 -46 104 -78 175 -65 150 -68 155 -97 150
-60 -12 -61 -8 147 -423 120 -241 191 -394 185 -398 -24 -14 -119 -34 -190
-40 l-76 -6 -38 94 c-21 51 -68 185 -105 298 -98 299 -165 435 -212 428 -48
-7 -45 -31 19 -160 65 -129 83 -173 128 -303 15 -44 52 -142 81 -218 30 -77
52 -143 49 -147 -8 -13 -97 -31 -125 -26 -34 7 -54 36 -106 152 -25 55 -49
108 -54 119 -5 11 -43 101 -85 200 -102 242 -156 349 -178 353 -10 2 -29 1
-43 -2 -45 -12 -31 -53 107 -329 132 -262 200 -410 213 -460 8 -32 -15 -47
-72 -47 -46 0 -31 -24 -227 363 -152 299 -182 345 -213 328 -11 -6 -22 -17
-26 -26 -6 -16 9 -59 30 -85 34 -44 301 -560 300 -580 -1 -12 -16 -15 -75 -15
l-75 0 -116 270 c-64 149 -121 280 -128 293 -16 28 -46 28 -66 1 -12 -18 -12
-28 -2 -63 13 -41 92 -214 185 -406 27 -57 49 -105 47 -107 -3 -4 -61 -6 -89
-4 -17 1 -56 75 -236 454 -43 91 -61 108 -86 87 -32 -26 -16 -73 89 -258 24
-42 58 -104 76 -137 18 -33 42 -77 53 -97 11 -21 17 -41 14 -45 -4 -3 -33 -6
-65 -6 -119 1 -101 -15 -191 168 -45 91 -86 165 -91 165 -19 0 -60 -32 -60
-47 0 -8 12 -35 26 -61 41 -73 100 -185 107 -206 7 -17 3 -18 -55 -13 -35 3
-63 6 -64 7 0 0 -17 35 -38 78 -20 42 -43 85 -51 95 -18 25 -46 18 -64 -14
-13 -24 -12 -31 22 -97 20 -39 33 -73 28 -77 -12 -7 -130 -9 -137 -3 -2 3 -6
162 -9 354 -10 659 -14 823 -20 891 -9 115 -14 175 -21 258 -3 44 -8 91 -10
105 -3 14 -7 97 -9 185 -3 118 -1 174 10 213 16 63 65 147 114 198 76 77 230
131 432 150 40 3 76 8 78 10 12 11 320 -8 406 -25z"/>
<path d="M3338 3835 c-2 -2 -21 -5 -43 -8 -52 -6 -153 -33 -224 -59 -119 -44
-160 -89 -120 -129 26 -26 63 -21 209 29 85 28 123 36 200 38 163 6 257 -31
367 -143 75 -76 105 -89 137 -57 91 90 -231 318 -464 328 -33 2 -61 2 -62 1z"/>
<path d="M4384 2795 c-14 -14 -24 -33 -22 -42 2 -9 28 -29 58 -45 30 -15 69
-45 85 -66 66 -82 91 -101 120 -96 37 7 45 12 54 38 11 26 -13 63 -83 129 -55
52 -143 107 -170 107 -9 0 -28 -11 -42 -25z"/>
<path d="M1728 3485 c-2 -2 -23 -6 -48 -9 -71 -9 -248 -54 -280 -71 l-30 -16
-1 -547 c-1 -301 -2 -741 -3 -978 l-1 -431 72 -94 c40 -52 88 -111 107 -132
l35 -39 188 4 c104 3 194 7 199 11 7 4 10 297 10 903 -1 493 2 898 6 900 22
14 29 -176 33 -931 l4 -640 30 -82 c45 -125 52 -136 88 -144 17 -3 98 -6 180
-5 l148 1 -1 100 c-1 55 -5 352 -8 660 -4 308 -9 612 -11 675 -21 650 -17 609
-57 643 -34 29 -193 116 -240 131 -22 7 -39 2 -87 -23 -33 -17 -66 -31 -73
-31 -8 0 -52 32 -98 70 -46 39 -87 71 -90 71 -14 3 -70 6 -72 4z m-3 -146 c4
-5 9 -117 13 -247 8 -330 8 -1579 0 -1587 -6 -6 -148 -10 -223 -6 -29 1 -31 4
-33 44 -1 23 -4 425 -8 894 l-6 852 29 15 c32 16 151 44 195 45 15 1 30 -4 33
-10z m458 -94 c67 -31 70 -48 82 -375 3 -91 8 -203 10 -250 15 -296 18 -415
19 -764 2 -302 0 -391 -10 -401 -9 -8 -34 -11 -80 -8 -38 2 -70 6 -72 8 -2 2
-6 289 -7 637 -3 577 -6 714 -19 848 -3 25 -8 99 -12 165 -4 66 -8 127 -9 135
-4 31 40 33 98 5z"/>
<path d="M1016 3194 c-103 -36 -226 -169 -265 -287 -15 -44 -16 -207 -3 -286
9 -51 8 -56 -15 -75 -75 -63 -83 -74 -78 -108 10 -70 19 -354 29 -904 5 -232
5 -233 96 -327 l59 -60 178 6 c98 3 191 10 207 16 l29 12 -7 812 c-8 1011 -10
1052 -29 1099 -14 32 -71 98 -86 98 -3 0 -22 4 -41 9 -24 5 -48 3 -74 -5z m13
-271 c4 -274 3 -1515 -2 -1519 -8 -8 -51 -15 -129 -21 -61 -4 -78 -2 -79 8 -1
8 -3 25 -4 39 -4 27 -12 248 -20 485 -5 161 -14 341 -20 390 -15 122 -15 152
1 165 8 8 32 13 53 12 20 -2 45 4 56 12 20 14 20 15 1 63 -51 132 -53 221 -7
319 28 59 116 164 138 164 7 0 11 -42 12 -117z"/>
<path d="M315 2436 c-63 -20 -128 -54 -168 -87 -91 -75 -144 -270 -145 -539 0
-167 12 -239 58 -330 66 -132 204 -301 274 -337 42 -22 146 -29 168 -11 19 15
25 66 34 323 10 279 11 897 1 935 -5 19 -16 41 -25 48 -21 16 -144 15 -197 -2z
m40 -92 c3 -20 9 -183 12 -362 9 -507 9 -565 -2 -569 -20 -6 -130 92 -170 152
-63 94 -78 150 -81 300 -5 214 26 325 117 429 39 44 93 86 110 86 4 0 10 -16
14 -36z"/>
</g>
</svg>
